<svg width="95" height="24" viewBox="0 0 95 24" fill="none" xmlns="http://www.w3.org/2000/svg">
<g clip-path="url(#clip0_1_57)">
<path d="M2.86473 8.33052C3.63582 9.89172 4.34252 10.4934 5.09166 11.1306C5.82178 11.7512 6.57385 12.3936 7.36103 13.8151V7.26766V5.21322C7.36103 2.3338 4.96071 0 2 0V4.88657C2.04828 5.85777 2.09876 6.78024 2.86473 8.33052ZM7.36103 22.8171V18.3365C7.31275 17.3631 7.263 16.4406 6.49557 14.8867C5.72448 13.3255 5.01704 12.7239 4.26864 12.0866C3.53852 11.466 2.78645 10.8236 2 9.40285V16.4348C2 18.0768 2.52162 19.6001 3.41122 20.858C4.48957 22.3828 6.10856 23.5184 8.00043 24C7.61416 23.741 7.36103 23.3082 7.36103 22.8171ZM18.0955 4.88657V0C15.1348 0 12.7345 2.3338 12.7345 5.21322V7.26766V13.8151C13.5217 12.3936 14.2737 11.7512 15.0039 11.1306C15.753 10.4941 16.4597 9.89245 17.2308 8.33052C17.996 6.78024 18.0465 5.85777 18.0955 4.88657ZM12.0944 24C13.9862 23.5184 15.6052 22.3835 16.6836 20.858C17.5732 19.6001 18.0948 18.0768 18.0948 16.4348V9.40285C17.3083 10.8236 16.5556 11.466 15.8262 12.0866C15.077 12.7231 14.3703 13.3248 13.5992 14.8867C12.8325 16.4399 12.7828 17.3631 12.7338 18.3365V22.8171C12.7345 23.3082 12.4806 23.741 12.0944 24Z" fill="white"/>
<path d="M90.8974 6.74387V14.3564L86.6521 6.74387H83.9006V17.2751H86.0039V9.63638L90.2639 17.2751H93V6.74387H90.8974Z" fill="white"/>
<path d="M60.002 9.85099C60.002 8.13483 58.6032 6.74387 56.8774 6.74387H51.1155V17.2758H53.2729V8.47821H56.5906C57.3134 8.47821 57.9002 9.06093 57.9002 9.78042C57.9002 10.4992 57.3142 11.0826 56.5906 11.0826H54.1596L57.7963 17.2758H60.1732L57.5666 12.8817C58.961 12.5689 60.002 11.3314 60.002 9.85099Z" fill="white"/>
<path d="M33.5685 12.7413C33.5685 14.0661 32.4887 15.1406 31.1557 15.1406C29.8235 15.1406 28.743 14.0668 28.743 12.7413V6.74387H26.5102V12.8992C26.5102 15.4505 28.5901 17.5188 31.1557 17.5188C33.7214 17.5188 35.8013 15.4505 35.8013 12.8992V6.74387H33.5685V12.7413Z" fill="white"/>
<path d="M43.4317 11.0819V12.985H46.4677C46.366 13.5881 46.0346 14.1388 45.554 14.5368C44.9248 15.0584 44.0989 15.3523 43.2027 15.2926C41.5113 15.1799 40.1615 13.7787 40.1147 12.0938C40.0627 10.2278 41.5683 8.69937 43.4324 8.69937C44.2606 8.69937 45.0177 9.002 45.5994 9.50106H47.909H48.3772C47.7882 8.34799 46.7948 7.39352 45.4955 6.87627C42.8574 5.82577 39.8784 6.94102 38.5564 9.36793C38.4547 9.55417 38.3618 9.74768 38.2806 9.9492C37.1437 12.7748 38.5301 15.9932 41.3708 17.1237C43.8626 18.1153 46.6579 17.1768 48.075 15.0256C48.086 15.0053 48.0962 14.9849 48.1065 14.9653C48.5674 14.1607 48.8315 13.2295 48.8315 12.2372C48.8315 11.8414 48.7883 11.4551 48.7086 11.0826L43.4317 11.0819Z" fill="white"/>
<path d="M62.166 17.2751H70.6904V15.3719H64.3242V12.9858H69.6662V11.0826H64.3242V8.69646H70.6904V6.79333H62.166V17.2751Z" fill="white"/>
<path d="M73.0607 17.2751H81.5844V15.3719H75.2189V12.9858H80.5602V11.0826H75.2189V8.69646H81.5844V6.79333H73.0607V17.2751Z" fill="white"/>
</g>
<defs>
<clipPath id="clip0_1_57">
<rect width="91" height="24" fill="white" transform="translate(2)"/>
</clipPath>
</defs>
</svg>
